<mxfile host="app.diagrams.net" modified="2024-05-30T10:47:09.897Z" agent="Mozilla/5.0 (Windows NT 10.0; Win64; x64; rv:126.0) Gecko/20100101 Firefox/126.0" etag="jo123MWjijZJBUddgQGM" version="24.4.10" type="device">
  <diagram name="Seite-1" id="iTAlZtDV1t6cfMrBkfIo">
    <mxGraphModel dx="1290" dy="538" grid="1" gridSize="10" guides="1" tooltips="1" connect="1" arrows="1" fold="1" page="1" pageScale="1" pageWidth="827" pageHeight="1169" math="0" shadow="0">
      <root>
        <mxCell id="0" />
        <mxCell id="1" parent="0" />
        <mxCell id="shFKqPbt07JiVX24HrV--1" value="&lt;h1 style=&quot;margin-top: 0px;&quot;&gt;Backend for Getout&lt;br&gt;&lt;/h1&gt;&lt;p&gt;This document will describe how the game is designed in code.&lt;br&gt;&lt;/p&gt;" style="text;html=1;whiteSpace=wrap;overflow=hidden;rounded=0;" vertex="1" parent="1">
          <mxGeometry x="20" y="10" width="500" height="100" as="geometry" />
        </mxCell>
        <mxCell id="shFKqPbt07JiVX24HrV--2" value="Player" style="shape=umlActor;verticalLabelPosition=bottom;verticalAlign=top;html=1;outlineConnect=0;" vertex="1" parent="1">
          <mxGeometry x="384" y="120" width="30" height="60" as="geometry" />
        </mxCell>
        <mxCell id="shFKqPbt07JiVX24HrV--3" value="StorageManager" style="rounded=0;whiteSpace=wrap;html=1;" vertex="1" parent="1">
          <mxGeometry x="244" y="250" width="140" height="60" as="geometry" />
        </mxCell>
        <mxCell id="shFKqPbt07JiVX24HrV--4" value="LevelLoader" style="rounded=0;whiteSpace=wrap;html=1;" vertex="1" parent="1">
          <mxGeometry x="244" y="350" width="140" height="60" as="geometry" />
        </mxCell>
        <mxCell id="shFKqPbt07JiVX24HrV--5" value="EventHandler" style="rounded=0;whiteSpace=wrap;html=1;" vertex="1" parent="1">
          <mxGeometry x="426" y="250" width="140" height="60" as="geometry" />
        </mxCell>
        <mxCell id="shFKqPbt07JiVX24HrV--6" value="Player events" style="rounded=0;whiteSpace=wrap;html=1;" vertex="1" parent="1">
          <mxGeometry x="426" y="350" width="140" height="60" as="geometry" />
        </mxCell>
        <mxCell id="shFKqPbt07JiVX24HrV--7" value="World events" style="rounded=0;whiteSpace=wrap;html=1;" vertex="1" parent="1">
          <mxGeometry x="426" y="450" width="140" height="60" as="geometry" />
        </mxCell>
        <mxCell id="shFKqPbt07JiVX24HrV--8" value="FileManager" style="rounded=0;whiteSpace=wrap;html=1;" vertex="1" parent="1">
          <mxGeometry x="244" y="450" width="140" height="60" as="geometry" />
        </mxCell>
        <mxCell id="shFKqPbt07JiVX24HrV--9" value="AssetLoader" style="rounded=0;whiteSpace=wrap;html=1;" vertex="1" parent="1">
          <mxGeometry x="244" y="540" width="140" height="60" as="geometry" />
        </mxCell>
      </root>
    </mxGraphModel>
  </diagram>
</mxfile>
